<svg width="75" height="75" viewBox="0 0 75 75" fill="none" xmlns="http://www.w3.org/2000/svg">
<circle cx="37.0949" cy="37.0949" r="37.0949" fill="white" fill-opacity="0.1"/>
<!-- <circle cx="37.0949" cy="37.0949" r="36.5949" stroke="white" stroke-opacity="0.4"/> -->
<g clip-path="url(#clip0_251_710)">
<path d="M38.7287 31.4067C38.2082 30.9302 37.7164 30.5357 37.064 30.5357C36.4097 30.5357 35.7634 30.9854 35.2988 31.4067C35.2244 31.4803 28.067 37.9478 26.5424 39.3222V45.206C26.5424 45.4516 26.6361 45.6974 26.8235 45.8845C27.0109 46.0719 27.2564 46.1655 27.502 46.1655H32.9229C33.0457 46.1655 33.1685 46.1188 33.2622 46.025C33.3558 45.9315 33.4027 45.8104 33.4027 45.6876L33.404 41.4774C33.404 41.3546 33.4509 41.2327 33.5446 41.139C33.6383 41.0455 33.7611 40.9986 33.8839 40.9986H39.9782C40.1009 40.9986 40.2235 41.0455 40.3173 41.1391C40.4109 41.2329 40.4579 41.3555 40.4579 41.4783V45.6857C40.4579 45.8085 40.5048 45.9313 40.5984 46.0248C40.692 46.1187 40.8148 46.1654 40.9377 46.1654H46.4697C46.7152 46.1654 46.9608 46.0718 47.1481 45.8845C47.3356 45.6973 47.4294 45.4516 47.4294 45.206V39.3768C45.8857 37.9661 38.7843 31.4615 38.7287 31.4067ZM50.9984 36.6011C50.9797 36.1614 50.7752 35.7583 50.3847 35.3918L49.6879 34.7049C49.3346 34.3566 48.8977 33.94 48.3773 33.4545C47.8566 32.969 47.2849 32.4239 46.6622 31.8191C46.0393 31.2142 45.4025 30.6051 44.7521 29.9917C44.1012 29.3774 43.4599 28.7683 42.8282 28.1639C42.1959 27.559 41.6239 27.0139 41.1127 26.5285C40.6016 26.0429 40.1696 25.6305 39.8161 25.2917C39.4627 24.9525 39.2305 24.7377 39.1189 24.6458C38.5426 24.0961 37.8459 23.8257 37.0275 23.8352C36.2097 23.8441 35.4474 24.1877 34.7411 24.8657C34.6479 24.9572 34.3185 25.2639 33.7512 25.7862C33.1841 26.3086 32.5056 26.9361 31.7155 27.6689C30.9254 28.4021 30.0704 29.19 29.1502 30.0327C28.2297 30.8755 27.3699 31.6634 26.5708 32.3961C25.7712 33.1289 25.0834 33.7612 24.5072 34.2925C23.9306 34.8238 23.5867 35.1446 23.4754 35.2545C23.1777 35.5296 23.0198 35.9004 23.0014 36.3675C22.9825 36.8351 23.1592 37.2334 23.531 37.5631C23.8655 37.8567 24.2655 37.9935 24.7301 37.9756C25.195 37.9573 25.5667 37.8378 25.8452 37.618C25.9385 37.545 26.2127 37.3023 26.6683 36.89C27.1234 36.4774 27.6674 35.9783 28.2998 35.3918C28.9315 34.8058 29.6194 34.1735 30.3629 33.4956C31.1068 32.8175 31.8131 32.1673 32.4825 31.5445C33.1515 30.9212 33.7419 30.3763 34.2531 29.9087C34.7642 29.4415 35.1129 29.1258 35.299 28.9608C35.8567 28.4663 36.4235 28.2095 36.9999 28.1912C37.576 28.1728 38.1614 28.4295 38.7567 28.9608C38.8867 29.0706 39.1935 29.3547 39.6767 29.8128C40.1603 30.2706 40.7364 30.8113 41.4059 31.4341C42.0749 32.0569 42.7862 32.7212 43.5393 33.4266C44.2921 34.1326 44.9982 34.7921 45.6583 35.4055C46.3183 36.0194 46.8851 36.5464 47.3596 36.9857C47.8334 37.4253 48.1167 37.6821 48.2098 37.7557C48.4887 37.9935 48.8606 38.1219 49.3252 38.1401C49.79 38.1586 50.1991 38.0123 50.5525 37.7006C50.8679 37.4075 51.0169 37.0408 50.9984 36.6011Z" fill="currentColor"/>
</g>
<defs>
<clipPath id="clip0_251_710">
<rect width="28" height="28" fill="white" transform="translate(23 21)"/>
</clipPath>
</defs>
</svg>
